<svg width="1440" height="423" viewBox="0 0 1440 423" fill="none" xmlns="http://www.w3.org/2000/svg">
<path d="M113.529 21.4746C43.6565 2.96493 0 21.4745 0 21.4745V423H1094.76H1440V61.5698C1440 61.5698 1395.57 -4.83631 1358.29 0.281295C1326.58 4.63485 1299.47 18.8261 1278.8 48.3185C1245.95 95.1899 1277.42 159.905 1245.42 207.631C1189.17 291.505 1139.13 303.546 1050.27 312.094C935.773 323.109 861.343 215.714 746.684 207.631C714.278 205.347 695.385 215.401 663.562 207.631C589.719 189.602 573.329 120.099 500.314 97.6555C430.036 76.0538 399.281 75.2726 329.656 97.6555C271.782 116.261 177.552 38.4347 113.529 21.4746Z" fill="url(#paint0_linear_170_338)"/>
<path d="M182.302 88.887C112.43 74.2571 0 105.638 0 105.638V423H1094.76H1440V137.329C1440 137.329 1395.57 84.8421 1358.29 88.887C1326.58 92.328 1314.74 114.018 1294.06 137.329C1261.21 174.376 1277.42 215.052 1245.42 252.774C1189.17 319.067 1119.39 319.812 1030.53 326.569C916.035 335.275 861.343 259.163 746.684 252.774C714.278 250.969 695.385 258.916 663.562 252.774C589.719 238.524 585.918 155.068 512.903 137.329C442.625 120.255 400.901 178.72 329.656 165.851C265.256 154.218 246.326 102.292 182.302 88.887Z" fill="#FAFAFC"/>
<defs>
<linearGradient id="paint0_linear_170_338" x1="720" y1="2.50119e-06" x2="747.413" y2="270.541" gradientUnits="userSpaceOnUse">
<stop stop-color="#E2E2E7"/>
<stop offset="1" stop-color="#F6F6F9"/>
</linearGradient>
</defs>
</svg>
