<svg width="1440" height="1130" viewBox="0 0 1440 1130" fill="none" xmlns="http://www.w3.org/2000/svg">
<rect width="1440" height="1130" fill="white"/>
<path d="M113.529 728.475C43.6565 709.965 0 728.475 0 728.475V1130H1094.76H1440V768.57C1440 768.57 1395.57 702.164 1358.29 707.281C1326.58 711.635 1299.47 725.826 1278.8 755.319C1245.95 802.19 1277.42 866.905 1245.42 914.631C1189.17 998.505 1126.36 819.951 1037.5 828.5C923.007 839.514 861.343 922.714 746.684 914.631C714.278 912.347 695.385 922.401 663.562 914.631C589.719 896.602 573.329 827.099 500.314 804.656C430.036 783.054 399.281 782.273 329.656 804.656C271.782 823.261 177.552 745.435 113.529 728.475Z" fill="url(#paint0_linear_170_338)"/>
<path d="M182.302 795.887C112.43 781.257 0 812.638 0 812.638V1130H1094.76H1440V844.329C1440 844.329 1395.57 791.842 1358.29 795.887C1326.58 799.328 1314.74 821.018 1294.06 844.329C1261.21 881.376 1277.42 922.052 1245.42 959.774C1189.17 1026.07 1060.36 880.743 971.5 887.5C857.007 896.206 861.343 966.163 746.684 959.774C714.278 957.969 695.385 965.916 663.562 959.774C589.719 945.524 585.918 862.068 512.903 844.329C442.625 827.255 400.901 885.72 329.656 872.851C265.256 861.218 246.326 809.292 182.302 795.887Z" fill="#FAFAFC"/>
<defs>
<linearGradient id="paint0_linear_170_338" x1="720" y1="707" x2="692.279" y2="948.09" gradientUnits="userSpaceOnUse">
<stop stop-color="#F0F0F0"/>
<stop offset="1" stop-color="#F6F6F9"/>
</linearGradient>
</defs>
</svg>
